<svg width="35" height="35" viewBox="0 0 35 35" fill="none" xmlns="http://www.w3.org/2000/svg">
<rect width="35" height="35" rx="17.5" fill="#19A7CE"/>
<path d="M12.4071 8.22321C12.4068 8.81255 12.1744 9.37763 11.7609 9.79415C11.3475 10.2107 10.7869 10.4445 10.2025 10.4442C9.61804 10.4439 9.05767 10.2095 8.64463 9.79257C8.23159 9.37564 7.99971 8.81033 8 8.22099C8.00029 7.63165 8.23273 7.06657 8.64619 6.65005C9.05965 6.23354 9.62025 5.99971 10.2047 6C10.7891 6.00029 11.3495 6.23469 11.7625 6.65162C12.1755 7.06856 12.4074 7.63387 12.4071 8.22321ZM12.4732 12.0897H8.06611V26H12.4732V12.0897ZM19.4365 12.0897H15.0514V26H19.3924V18.7004C19.3924 14.634 24.648 14.2562 24.648 18.7004V26H29V17.1894C29 10.3342 21.2214 10.5897 19.3924 13.9562L19.4365 12.0897Z" fill="#FEFDFD"/>
</svg>
