<svg width="121" height="40" viewBox="0 0 121 40" fill="none" xmlns="http://www.w3.org/2000/svg">
<path d="M0.4 33V0.599998H11.28C13.2267 0.599998 14.8267 0.973331 16.08 1.72C17.3333 2.44 18.2667 3.50666 18.88 4.92C19.4933 6.30667 19.8 8 19.8 10C19.8 12.5067 19.3867 14.4267 18.56 15.76C17.7333 17.0667 16.6133 17.9733 15.2 18.48C13.7867 18.9867 12.2 19.24 10.44 19.24H7.56V33H0.4ZM7.56 14.24H9.96C10.84 14.24 11.5067 14.08 11.96 13.76C12.4133 13.44 12.7067 12.96 12.84 12.32C13 11.68 13.08 10.8667 13.08 9.88C13.08 9.05333 13.0133 8.33333 12.88 7.72C12.7733 7.08 12.4933 6.57333 12.04 6.2C11.5867 5.82667 10.88 5.64 9.92 5.64H7.56V14.24ZM22.8934 33V9.88H29.4134V13.72C30.1601 12.3867 30.9068 11.3733 31.6534 10.68C32.4001 9.96 33.3068 9.6 34.3734 9.6C34.5868 9.6 34.7734 9.61333 34.9334 9.64C35.0934 9.64 35.2401 9.66667 35.3734 9.72V16.2C35.0801 16.0667 34.7468 15.96 34.3734 15.88C34.0268 15.7733 33.6534 15.72 33.2534 15.72C32.5068 15.72 31.8134 15.92 31.1734 16.32C30.5334 16.72 29.9468 17.2667 29.4134 17.96V33H22.8934ZM45.6869 33.4C44.0335 33.4 42.5935 33.12 41.3669 32.56C40.1669 32 39.2335 31.16 38.5669 30.04C37.9269 28.92 37.6069 27.52 37.6069 25.84V17.04C37.6069 15.36 37.9269 13.96 38.5669 12.84C39.2335 11.72 40.1669 10.88 41.3669 10.32C42.5935 9.76 44.0335 9.48 45.6869 9.48C47.3402 9.48 48.7669 9.76 49.9669 10.32C51.1935 10.88 52.1402 11.72 52.8069 12.84C53.4735 13.96 53.8069 15.36 53.8069 17.04V25.84C53.8069 27.52 53.4735 28.92 52.8069 30.04C52.1402 31.16 51.1935 32 49.9669 32.56C48.7669 33.12 47.3402 33.4 45.6869 33.4ZM45.7269 29.08C46.1535 29.08 46.4869 28.9733 46.7269 28.76C46.9669 28.52 47.1269 28.2 47.2069 27.8C47.3135 27.3733 47.3669 26.8667 47.3669 26.28V16.6C47.3669 16.0133 47.3135 15.52 47.2069 15.12C47.1269 14.6933 46.9669 14.3733 46.7269 14.16C46.4869 13.92 46.1535 13.8 45.7269 13.8C45.3002 13.8 44.9669 13.92 44.7269 14.16C44.4869 14.3733 44.3135 14.6933 44.2069 15.12C44.1002 15.52 44.0469 16.0133 44.0469 16.6V26.28C44.0469 26.8667 44.1002 27.3733 44.2069 27.8C44.3135 28.2 44.4869 28.52 44.7269 28.76C44.9669 28.9733 45.3002 29.08 45.7269 29.08ZM64.6628 33.24C62.9295 33.24 61.5961 32.9867 60.6628 32.48C59.7295 31.9733 59.0761 31.24 58.7028 30.28C58.3561 29.2933 58.1828 28.1067 58.1828 26.72V14.16H55.9428V9.88H58.1828V2.84H64.7828V9.88H68.0628V14.16H64.7828V26.08C64.7828 26.7467 64.9695 27.2267 65.3428 27.52C65.7428 27.8133 66.2361 27.96 66.8228 27.96C67.1695 27.96 67.4895 27.9467 67.7828 27.92C68.0761 27.8667 68.3428 27.8267 68.5828 27.8V32.92C68.2361 32.9733 67.6895 33.04 66.9428 33.12C66.1961 33.2 65.4361 33.24 64.6628 33.24ZM78.6863 33.24C76.9529 33.24 75.6196 32.9867 74.6862 32.48C73.7529 31.9733 73.0996 31.24 72.7263 30.28C72.3796 29.2933 72.2063 28.1067 72.2063 26.72V14.16H69.9663V9.88H72.2063V2.84H78.8063V9.88H82.0863V14.16H78.8063V26.08C78.8063 26.7467 78.9929 27.2267 79.3663 27.52C79.7663 27.8133 80.2596 27.96 80.8463 27.96C81.1929 27.96 81.5129 27.9467 81.8063 27.92C82.0996 27.8667 82.3663 27.8267 82.6063 27.8V32.92C82.2596 32.9733 81.7129 33.04 80.9663 33.12C80.2196 33.2 79.4596 33.24 78.6863 33.24ZM93.0697 33.4C91.4164 33.4 89.9764 33.12 88.7497 32.56C87.5497 32 86.6164 31.16 85.9497 30.04C85.3097 28.92 84.9897 27.52 84.9897 25.84V17.04C84.9897 15.36 85.3097 13.96 85.9497 12.84C86.6164 11.72 87.5497 10.88 88.7497 10.32C89.9764 9.76 91.4164 9.48 93.0697 9.48C94.723 9.48 96.1497 9.76 97.3497 10.32C98.5764 10.88 99.523 11.72 100.19 12.84C100.856 13.96 101.19 15.36 101.19 17.04V25.84C101.19 27.52 100.856 28.92 100.19 30.04C99.523 31.16 98.5764 32 97.3497 32.56C96.1497 33.12 94.723 33.4 93.0697 33.4ZM93.1097 29.08C93.5364 29.08 93.8697 28.9733 94.1097 28.76C94.3497 28.52 94.5097 28.2 94.5897 27.8C94.6964 27.3733 94.7497 26.8667 94.7497 26.28V16.6C94.7497 16.0133 94.6964 15.52 94.5897 15.12C94.5097 14.6933 94.3497 14.3733 94.1097 14.16C93.8697 13.92 93.5364 13.8 93.1097 13.8C92.683 13.8 92.3497 13.92 92.1097 14.16C91.8697 14.3733 91.6964 14.6933 91.5897 15.12C91.483 15.52 91.4297 16.0133 91.4297 16.6V26.28C91.4297 26.8667 91.483 27.3733 91.5897 27.8C91.6964 28.2 91.8697 28.52 92.1097 28.76C92.3497 28.9733 92.683 29.08 93.1097 29.08ZM105.446 39.72V35.2C106.272 35.2 106.952 35.1467 107.486 35.04C108.046 34.9333 108.459 34.7333 108.726 34.44C109.019 34.1467 109.166 33.7467 109.166 33.24C109.166 32.7867 109.086 32.24 108.926 31.6C108.766 30.9333 108.566 30.1867 108.326 29.36L102.886 9.88H109.006L111.926 23.24L114.126 9.88H120.286L114.966 33.56C114.619 35.16 114.072 36.4 113.326 37.28C112.579 38.1867 111.659 38.8133 110.566 39.16C109.499 39.5333 108.286 39.72 106.926 39.72H105.446Z" fill="#19A7CE"/>
</svg>
