<svg width="35" height="35" viewBox="0 0 35 35" fill="none" xmlns="http://www.w3.org/2000/svg">
<path d="M5.83332 29.1668C5.03124 29.1668 4.34485 28.8815 3.77416 28.3108C3.20346 27.7401 2.91763 27.0532 2.91666 26.2502V8.75016C2.91666 7.94808 3.20249 7.26169 3.77416 6.691C4.34582 6.1203 5.03221 5.83447 5.83332 5.8335H29.1667C29.9687 5.8335 30.6556 6.11933 31.2273 6.691C31.7989 7.26266 32.0843 7.94905 32.0833 8.75016V26.2502C32.0833 27.0522 31.798 27.7391 31.2273 28.3108C30.6566 28.8825 29.9697 29.1678 29.1667 29.1668H5.83332ZM17.5 18.9585L29.1667 11.6668V8.75016L17.5 16.0418L5.83332 8.75016V11.6668L17.5 18.9585Z" fill="#19A7CE"/>
</svg>
