<svg width="35" height="35" viewBox="0 0 35 35" fill="none" xmlns="http://www.w3.org/2000/svg">
<rect width="35" height="35" rx="17.5" fill="#FEFDFD"/>
<path d="M29.8059 10.3529C28.9 10.7647 27.9235 11.0353 26.9118 11.1647C27.9471 10.5412 28.7471 9.55294 29.1235 8.36471C28.1471 8.95294 27.0647 9.36471 25.9235 9.6C24.9941 8.58824 23.6882 8 22.2059 8C19.4412 8 17.1824 10.2588 17.1824 13.0471C17.1824 13.4471 17.2294 13.8353 17.3118 14.2C13.1235 13.9882 9.39413 11.9765 6.91178 8.92941C6.47648 9.67059 6.22942 10.5412 6.22942 11.4588C6.22942 13.2118 7.11178 14.7647 8.47648 15.6471C7.64119 15.6471 6.86472 15.4118 6.18237 15.0588V15.0941C6.18237 17.5412 7.92354 19.5882 10.2294 20.0471C9.48923 20.2505 8.71182 20.2787 7.95884 20.1294C8.27837 21.1323 8.90417 22.0099 9.74827 22.6387C10.5924 23.2676 11.6123 23.6161 12.6647 23.6353C10.8808 25.0477 8.66943 25.8111 6.39413 25.8C5.99413 25.8 5.59413 25.7765 5.19413 25.7294C7.42942 27.1647 10.0882 28 12.9353 28C22.2059 28 27.3 20.3059 27.3 13.6353C27.3 13.4118 27.3 13.2 27.2882 12.9765C28.2765 12.2706 29.1235 11.3765 29.8059 10.3529Z" fill="#01131B"/>
</svg>
